<?xml version="1.0" encoding="UTF-8" standalone="no"?>
<svg
   viewBox="0 0 200 200"
   version="1.1"
   id="svg18"
   sodipodi:docname="mudolist.svg"
   inkscape:version="1.4 (e7c3feb100, 2024-10-09)"
   xmlns:inkscape="http://www.inkscape.org/namespaces/inkscape"
   xmlns:sodipodi="http://sodipodi.sourceforge.net/DTD/sodipodi-0.dtd"
   xmlns="http://www.w3.org/2000/svg"
   xmlns:svg="http://www.w3.org/2000/svg">
  <defs
     id="defs18" />
  <sodipodi:namedview
     id="namedview18"
     pagecolor="#ffffff"
     bordercolor="#000000"
     borderopacity="0.25"
     inkscape:showpageshadow="2"
     inkscape:pageopacity="0.0"
     inkscape:pagecheckerboard="0"
     inkscape:deskcolor="#d1d1d1"
     inkscape:zoom="5.995"
     inkscape:cx="100.0834"
     inkscape:cy="100.0834"
     inkscape:window-width="3440"
     inkscape:window-height="1371"
     inkscape:window-x="0"
     inkscape:window-y="0"
     inkscape:window-maximized="1"
     inkscape:current-layer="svg18" />
  <!-- Main application window -->
  <rect
     x="10"
     y="10"
     width="180"
     height="180"
     rx="10"
     ry="10"
     fill="#4A86E8"
     stroke="#000"
     stroke-width="4"
     id="rect1" />
  <!-- Main window title bar -->
  <path
     d="M 9.4114989,9.5593991 H 190.55592 V 24.752047 q -90.572212,5.064216 -181.1444211,0 z"
     fill="#ffd700"
     stroke="#000000"
     stroke-width="2.85557"
     id="path1" />
  <!-- Exaggerated 3D effect for main window -->
  <path
     d="M10 190 Q 100 180 190 190"
     fill="#2A66C8"
     stroke="#000"
     stroke-width="4"
     id="path2" />
  <path
     d="M190 40 Q 180 115 190 190"
     fill="#2A66C8"
     stroke="#000"
     stroke-width="4"
     id="path3" />
  <!-- Document windows -->
  <!-- Window 1 (back-left) -->
  <path
     d="m 19.572821,49.234975 q 40.305333,-3.836896 80.610669,0 v 76.737905 q -40.305336,3.8369 -80.610669,0 z"
     fill="#ffffff"
     stroke="#000000"
     stroke-width="2.95304"
     id="path4" />
  <path
     d="m 19.671104,48.729784 q 40.328896,-3.078827 80.657796,0 v 12.315308 q -40.3289,-3.078827 -80.657796,0 z"
     fill="#ffd700"
     stroke="#000000"
     stroke-width="3"
     id="path5" />
  <path
     d="m 39.124152,72.774694 q 26.401029,-2.054595 49.947893,0"
     stroke="#000000"
     stroke-width="1.71233"
     id="path6" />
  <path
     d="m 43.401707,115.75253 q 26.401029,-2.05459 49.947893,0"
     stroke="#000000"
     stroke-width="1.71233"
     id="path6-3" />
  <path
     d="m 41.123614,87.042452 q 26.577615,-2.05359 50.281977,0"
     stroke="#000000"
     stroke-width="1.71763"
     id="path7" />
  <path
     d="m 41.760255,100.69481 q 25.606426,-2.059165 48.444588,0"
     stroke="#000000"
     stroke-width="1.68824"
     id="path8" />
  <!-- Window 2 (back-right) -->
  <!-- Window 3 (front-center) -->
  <path
     d="m 76.674896,93.322712 q 48.375924,-3.863541 96.751864,0 v 77.270858 q -48.37594,3.86354 -96.751864,0 z"
     fill="#ffffff"
     stroke="#000000"
     stroke-width="2.94656"
     id="path14" />
  <path
     d="m 25.29026,68.420352 q 4.683546,-0.849566 9.443445,-0.825504 l 0.763686,8.736274 q -4.683531,0.849566 -9.443445,0.825504 z"
     fill="#ffffff"
     stroke="#000000"
     stroke-width="0.310713"
     id="path14-3"
     style="stroke-width:1.711;stroke-dasharray:none"
     inkscape:transform-center-x="1.3344454"
     inkscape:transform-center-y="-1.3344454" />
  <path
     d="m 26.904792,81.879575 q 4.753806,-0.242276 9.471363,0.391657 l -0.362328,8.762102 q -4.753791,0.242277 -9.471363,-0.391658 z"
     fill="#ffffff"
     stroke="#000000"
     stroke-width="0.310713"
     id="path14-3-6"
     style="stroke-width:1.711;stroke-dasharray:none"
     inkscape:transform-center-x="-4.2762687"
     inkscape:transform-center-y="-8.3615799" />
  <path
     d="m 26.588233,97.357229 q 4.683546,-0.849566 9.443445,-0.825504 l 0.763686,8.736275 q -4.683531,0.84956 -9.443445,0.8255 z"
     fill="#ffffff"
     stroke="#000000"
     stroke-width="0.310713"
     id="path14-3-7"
     style="stroke-width:1.711;stroke-dasharray:none"
     inkscape:transform-center-x="1.3344454"
     inkscape:transform-center-y="-1.3344454" />
  <path
     d="m 28.31858,111.08656 q 4.758705,-0.10997 9.456806,0.65493 l -0.605888,8.74864 q -4.758689,0.10996 -9.456805,-0.65494 z"
     fill="#ffffff"
     stroke="#000000"
     stroke-width="0.310713"
     id="path14-3-5"
     style="stroke-width:1.711;stroke-dasharray:none"
     inkscape:transform-center-x="1.1103944"
     inkscape:transform-center-y="-1.5259416" />
  <path
     d="m 76.484817,91.264343 q 48.740633,-2.847041 97.481263,0 v 11.388167 q -48.74063,-2.847038 -97.481263,0 z"
     fill="#ffd700"
     stroke="#000000"
     stroke-width="2.23508"
     id="path15" />
  <path
     d="m 83.096254,128.13013 q 44.399156,-2.00851 85.019656,0"
     stroke="#000000"
     stroke-width="1.94801"
     id="path16" />
  <path
     d="m 82.040681,112.80228 q 44.399149,-2.00851 85.019649,0"
     stroke="#000000"
     stroke-width="1.94801"
     id="path16-5" />
  <path
     d="m 83.99733,141.44781 q 43.99159,-2.00987 84.23922,0"
     stroke="#000000"
     stroke-width="1.9397"
     id="path17" />
  <path
     d="m 84.137492,156.58117 q 43.941158,-2.01003 84.142648,0"
     stroke="#000000"
     stroke-width="1.93867"
     id="path18" />
  <!-- Main window buttons -->
</svg>
